<svg xmlns="http://www.w3.org/2000/svg" viewBox="0 0 100 100" width="100" height="100">
  <defs>
    <linearGradient id="goldGradient" x1="0%" y1="0%" x2="100%" y2="100%">
      <stop offset="0%" style="stop-color:#d4af37;stop-opacity:1" />
      <stop offset="100%" style="stop-color:#b8941f;stop-opacity:1" />
    </linearGradient>
  </defs>

  <!-- Background circle -->
  <circle cx="50" cy="50" r="45" fill="url(#goldGradient)" opacity="0.1"/>
  <circle cx="50" cy="50" r="45" fill="none" stroke="url(#goldGradient)" stroke-width="2"/>

  <!-- Car silhouette -->
  <path d="M25 55 L25 50 Q25 45 30 45 L35 45 L40 40 L60 40 L65 45 L70 45 Q75 45 75 50 L75 55 Q75 60 70 60 L65 60 L65 65 Q65 68 62 68 L58 68 Q55 68 55 65 L55 60 L45 60 L45 65 Q45 68 42 68 L38 68 Q35 68 35 65 L35 60 L30 60 Q25 60 25 55 Z"
        fill="url(#goldGradient)"
        stroke="url(#goldGradient)"
        stroke-width="1"/>

  <!-- Wheels -->
  <circle cx="37" cy="60" r="5" fill="#1a1a1a"/>
  <circle cx="37" cy="60" r="3" fill="url(#goldGradient)"/>

  <circle cx="63" cy="60" r="5" fill="#1a1a1a"/>
  <circle cx="63" cy="60" r="3" fill="url(#goldGradient)"/>

  <!-- Windows -->
  <path d="M42 43 L48 43 L48 50 L42 50 Z" fill="#1e3a5f" opacity="0.8"/>
  <path d="M52 43 L58 43 L58 50 L52 50 Z" fill="#1e3a5f" opacity="0.8"/>

  <!-- Shine/detail -->
  <line x1="45" y1="35" x2="55" y2="35" stroke="url(#goldGradient)" stroke-width="2" stroke-linecap="round"/>
  <circle cx="45" cy="47" r="1" fill="#f8f8f8" opacity="0.8"/>
  <circle cx="55" cy="47" r="1" fill="#f8f8f8" opacity="0.8"/>
</svg>